<svg width="35" height="35" viewBox="0 0 35 35" fill="none" xmlns="http://www.w3.org/2000/svg">
<g clip-path="url(#clip0)">
<path d="M29.6557 35H5.34426C2.40536 35 0 32.5951 0 29.6557V5.34423C0 2.40489 2.40536 -2.57492e-05 5.34426 -2.57492e-05H29.6557C32.5955 -2.57492e-05 35 2.40489 35 5.34423V29.6557C35 32.5951 32.5955 35 29.6557 35Z" fill="#005B67"/>
<path d="M27.723 26.6764C27.723 27.7305 26.8652 28.5878 25.8115 28.5878H9.18909C8.13494 28.5878 7.27718 27.7305 7.27718 26.6764V8.32373C7.27718 7.26957 8.13494 6.41226 9.18909 6.41226H25.8115C26.8652 6.41226 27.723 7.26957 27.723 8.32373V26.6764ZM25.8115 5.52155H9.18909C7.64371 5.52155 6.38647 6.77834 6.38647 8.32373V26.6764C6.38647 28.2217 7.64371 29.4785 9.18909 29.4785H25.8115C27.3569 29.4785 28.6137 28.2217 28.6137 26.6764V8.32373C28.6137 6.77834 27.3569 5.52155 25.8115 5.52155Z" fill="white"/>
<path d="M12.8872 26.1498H13.4635V22.1136H12.8872V26.1498Z" fill="white"/>
<path d="M15.77 26.1498H16.3468V22.1136H15.77V26.1498Z" fill="white"/>
<path d="M18.6537 26.1498H19.2304V22.1136H18.6537V26.1498Z" fill="white"/>
<path d="M21.5369 26.1498H22.1136V22.1136H21.5369V26.1498Z" fill="white"/>
<path d="M16.7727 13.1128L17.6892 12.1963C17.8313 12.0586 17.9631 11.9112 18.1163 11.7847C18.2513 11.6405 18.3359 11.4454 18.4481 11.2784C18.6614 10.9323 18.8601 10.5725 19.0511 10.2046C18.6828 10.3952 18.323 10.5943 17.9774 10.8076C17.8099 10.9199 17.6153 11.004 17.4706 11.1394C17.3445 11.2926 17.1967 11.4245 17.0595 11.5665L15.3823 13.2433L14.6221 14.0035H15.6976H18.3706L17.4046 14.9695C17.2586 15.1111 17.1214 15.2621 16.9682 15.3961C16.8845 15.4567 16.8377 15.5533 16.782 15.642L16.619 15.9101C16.3995 16.2659 16.1928 16.6347 15.9933 17.0105C16.3692 16.811 16.738 16.6044 17.0938 16.3848L17.3619 16.2214C17.4505 16.1662 17.5472 16.1194 17.6077 16.0357C17.7422 15.8825 17.8928 15.7453 18.0344 15.5992L19.7606 13.8735L20.5208 13.1128H19.4457H16.7727Z" fill="white"/>
</g>
<defs>
<clipPath id="clip0">
<rect width="35" height="35" fill="white"/>
</clipPath>
</defs>
</svg>
