<svg width="70" height="70" viewBox="0 0 70 70" fill="none" xmlns="http://www.w3.org/2000/svg">
<g clip-path="url(#clip0)">
<path d="M35 1.36719C53.1222 1.36719 68.6328 16.8778 68.6328 35C68.6328 53.1222 53.1222 68.6328 35 68.6328C28.5523 68.6328 21.7372 66.746 16.6647 63.5331L1.36719 68.6328L6.4669 53.3353C3.25401 48.2633 1.36719 41.4477 1.36719 35C1.36719 16.8778 16.8778 1.36719 35 1.36719Z" fill="#96C8EF"/>
<path d="M41.8359 48.6719V54.1406H28.1641V48.6719H30.8984V35H28.1641V29.5312H39.1016V48.6719H41.8359Z" fill="white"/>
<path d="M39.1016 19.9609C39.1016 22.2264 37.2655 24.0625 35 24.0625C32.7351 24.0625 30.8984 22.2264 30.8984 19.9609C30.8984 17.696 32.7351 15.8594 35 15.8594C37.2655 15.8594 39.1016 17.696 39.1016 19.9609Z" fill="white"/>
<path d="M56.3281 18.5938C56.3281 19.3484 56.9407 19.9609 57.6953 19.9609C58.4499 19.9609 59.0625 19.3484 59.0625 18.5938C59.0625 17.8391 58.4499 17.2266 57.6953 17.2266C56.9407 17.2266 56.3281 17.8391 56.3281 18.5938Z" fill="black"/>
<path d="M61.7969 35C61.7969 36.7512 61.6212 38.4991 61.2751 40.1953C61.1239 40.935 61.6014 41.657 62.3411 41.8081C62.4335 41.8274 62.5253 41.8365 62.6161 41.8365C63.2522 41.8365 63.822 41.3894 63.9545 40.7422C64.3374 38.866 64.5312 36.9343 64.5312 35C64.5312 30.6949 63.5977 26.5523 61.7557 22.6867C61.431 22.0053 60.6155 21.7158 59.9335 22.0405C59.2515 22.3652 58.9626 23.1813 59.2873 23.8633C60.9525 27.3581 61.7969 31.1051 61.7969 35Z" fill="black"/>
<path d="M41.8359 47.3047H40.4688V29.5312C40.4688 28.7761 39.8567 28.1641 39.1016 28.1641H28.1641C27.4089 28.1641 26.7969 28.7761 26.7969 29.5312V35C26.7969 35.7552 27.4089 36.3672 28.1641 36.3672H29.5312V47.3047H28.1641C27.4089 47.3047 26.7969 47.9167 26.7969 48.6719V54.1406C26.7969 54.8958 27.4089 55.5078 28.1641 55.5078H41.8359C42.5911 55.5078 43.2031 54.8958 43.2031 54.1406V48.6719C43.2031 47.9167 42.5911 47.3047 41.8359 47.3047ZM40.4688 52.7734H29.5312V50.0391H30.8984C31.6536 50.0391 32.2656 49.427 32.2656 48.6719V35C32.2656 34.2448 31.6536 33.6328 30.8984 33.6328H29.5312V30.8984H37.7344V48.6719C37.7344 49.427 38.3469 50.0391 39.1016 50.0391H40.4688V52.7734Z" fill="black"/>
<path d="M35 25.4297C38.0153 25.4297 40.4688 22.9762 40.4688 19.9609C40.4688 16.9456 38.0153 14.4922 35 14.4922C31.9847 14.4922 29.5312 16.9456 29.5312 19.9609C29.5312 22.9762 31.9847 25.4297 35 25.4297ZM35 17.2266C36.5076 17.2266 37.7344 18.4533 37.7344 19.9609C37.7344 21.4686 36.5076 22.6953 35 22.6953C33.4924 22.6953 32.2656 21.4686 32.2656 19.9609C32.2656 18.4533 33.4924 17.2266 35 17.2266Z" fill="black"/>
<path d="M34.9996 0C16.1356 0 -0.000428661 16.1056 -0.000428661 35C-0.000428661 41.4541 1.84901 48.3178 4.96737 53.5094L0.0695329 68.2008C-0.0938888 68.6916 0.033751 69.2336 0.400115 69.5995C0.76808 69.9674 1.31068 70.0929 1.79935 69.9295L16.4907 65.0322C21.6818 68.1511 28.5455 70 34.9996 70C53.8684 70 69.9996 53.8923 69.9996 35C69.9996 16.1312 53.8924 0 34.9996 0V0ZM34.9996 67.2656C28.8082 67.2656 22.2276 65.4386 17.396 62.3785C17.0536 62.1616 16.6269 62.1045 16.2317 62.2364L3.52862 66.4709L7.76317 53.7679C7.89348 53.378 7.84114 52.9507 7.62111 52.6036C4.56096 47.7725 2.73395 41.1913 2.73395 35C2.73395 17.5101 17.5097 2.73438 34.9996 2.73438C52.4894 2.73438 67.2652 17.5101 67.2652 35C67.2652 52.4899 52.4894 67.2656 34.9996 67.2656Z" fill="black"/>
</g>
<defs>
<clipPath id="clip0">
<rect width="70" height="70" fill="white"/>
</clipPath>
</defs>
</svg>
