<svg width="28" height="28" viewBox="0 0 28 28" fill="none" xmlns="http://www.w3.org/2000/svg">
<path d="M14.0001 12.1334C15.8014 12.1334 17.2667 10.6676 17.2667 8.86676C17.2667 7.0659 15.8014 5.6001 14.0001 5.6001C12.1987 5.6001 10.7334 7.0659 10.7334 8.86676C10.7334 10.6676 12.1987 12.1334 14.0001 12.1334ZM14.0001 6.53343C15.2867 6.53343 16.3334 7.58016 16.3334 8.86676C16.3334 10.1534 15.2867 11.2001 14.0001 11.2001C12.7135 11.2001 11.6667 10.1534 11.6667 8.86676C11.6667 7.58016 12.7135 6.53343 14.0001 6.53343Z" fill="white"/>
<path d="M13.9174 25.5533L21.0766 15.2133C23.7618 11.6335 23.3735 5.74933 20.2454 2.62173C18.5552 0.931 16.3077 0 13.9174 0C11.5272 0 9.27969 0.931 7.58942 2.62127C4.46136 5.74887 4.07309 11.6331 6.74756 15.1989L13.9174 25.5533ZM8.24929 3.28113C9.76362 1.76727 11.7764 0.933333 13.9174 0.933333C16.0585 0.933333 18.0712 1.76727 19.5856 3.28113C22.4089 6.104 22.7566 11.4184 20.3196 14.6673L13.9174 23.9134L7.50496 14.6533C5.07829 11.4184 5.42642 6.104 8.24929 3.28113Z" fill="white"/>
<path d="M19.6546 20.0699C19.3979 20.0387 19.1665 20.2225 19.1366 20.4787C19.1067 20.7349 19.2897 20.9669 19.5454 20.9967C24.4529 21.5745 27.0667 23.1313 27.0667 24.0333C27.0667 25.2999 22.0957 27.0667 14 27.0667C5.90427 27.0667 0.933333 25.2999 0.933333 24.0333C0.933333 23.1313 3.54713 21.5745 8.4546 20.9967C8.71033 20.9669 8.89327 20.7345 8.8634 20.4787C8.83307 20.2225 8.6016 20.0377 8.3454 20.0699C3.43187 20.6486 0 22.2782 0 24.0333C0 26.0045 4.809 28 14 28C23.191 28 28 26.0045 28 24.0333C28 22.2782 24.5681 20.6486 19.6546 20.0699Z" fill="white"/>
</svg>
